<?xml version="1.0" standalone="no"?>
<svg viewBox="0 0 830 500" xmlns="http://www.w3.org/2000/svg" xmlns:xlink="http://www.w3.org/1999/xlink" version="1.1">
<defs>
	<g id="a">
		<path d="M0.25,0.75L0.75,0.25,0.75,0,0.25,0z" />
		<path stroke="black" d="M0.75,0.25L0.75,0M0.25,0L0.25,0.75" stroke-width="0.02"/>
		<path d="M0.75,0L0.25,0,0,0.25,0,0.75z"/>
		<path stroke="black" d="M0.25,0L0,0.25M0,0.75L0.75,0.0" stroke-width="0.02"/>
		<path d="M0,0.25L0,0.75,0.25,0.75,0.75,0.25z"/>
		<path stroke="black" d="M0,0.75L0.25,0.75M0.75,0.25L0,0.25" stroke-width="0.02"/>
		<path stroke="black" d="M0,0.5L0.5,0.5" stroke-width="0.01"/>
	</g>
</defs>
<g transform="matrix(25.98076212,-15,25.98076212,15,0,0)" fill="rgb(255,220,120)" id="unit" stroke-Pcap="square" stroke="none">
	<use xlink:href="#a"/>
	<g transform="matrix(1,-1,1,0,0,0)">
			<use xlink:href="#a"/>
			<g transform="matrix(1,-1,1,0,0,0)">
			<use xlink:href="#a"/>
				<g transform="matrix(1,-1,1,0,0,0)">
			<use xlink:href="#a"/>
				<g transform="matrix(1,-1,1,0,0,0)">
			<use xlink:href="#a"/>
				<g transform="matrix(1,-1,1,0,0,0)">
			<use xlink:href="#a"/>
	</g>
	</g>
	</g>
	</g>
	</g>
</g>
<g id="P">
	<g transform="matrix(1,0,0,1,52,0)"><use xlink:href="#unit"/>
	<g transform="matrix(1,0,0,1,52,0)"><use xlink:href="#unit"/>
	<g transform="matrix(1,0,0,1,52,0)"><use xlink:href="#unit"/>
	<g transform="matrix(1,0,0,1,52,0)"><use xlink:href="#unit"/>
	<g transform="matrix(1,0,0,1,52,0)"><use xlink:href="#unit"/>
	<g transform="matrix(1,0,0,1,52,0)"><use xlink:href="#unit"/>
	<g transform="matrix(1,0,0,1,52,0)"><use xlink:href="#unit"/>
	<g transform="matrix(1,0,0,1,52,0)"><use xlink:href="#unit"/>
	<g transform="matrix(1,0,0,1,52,0)"><use xlink:href="#unit"/>
	<g transform="matrix(1,0,0,1,52,0)"><use xlink:href="#unit"/>
	<g transform="matrix(1,0,0,1,52,0)"><use xlink:href="#unit"/>
	<g transform="matrix(1,0,0,1,52,0)"><use xlink:href="#unit"/>
	<g transform="matrix(1,0,0,1,52,0)"><use xlink:href="#unit"/>
	<g transform="matrix(1,0,0,1,52,0)"><use xlink:href="#unit"/>
	<g transform="matrix(1,0,0,1,52,0)"><use xlink:href="#unit"/>
	<g transform="matrix(1,0,0,1,52,0)"><use xlink:href="#unit"/>
	<g transform="matrix(1,0,0,1,52,0)"><use xlink:href="#unit"/>
	<g transform="matrix(1,0,0,1,52,0)"><use xlink:href="#unit"/>
	<g transform="matrix(1,0,0,1,52,0)"><use xlink:href="#unit"/>
	<g transform="matrix(1,0,0,1,52,0)"><use xlink:href="#unit"/>
	<g transform="matrix(1,0,0,1,52,0)"><use xlink:href="#unit"/></g></g></g></g></g></g></g></g></g></g></g></g></g></g></g></g></g></g></g></g></g>
	</g>
<g transform="matrix(1,0,0,1,-26,45)">
<use xlink:href="#P"/>
<g transform="matrix(1,0,0,1,-26,45)">
<use xlink:href="#P"/>
<g transform="matrix(1,0,0,1,-26,45)">
<use xlink:href="#P"/>
<g transform="matrix(1,0,0,1,-26,45)">
<use xlink:href="#P"/>
<g transform="matrix(1,0,0,1,-26,45)">
<use xlink:href="#P"/>
<g transform="matrix(1,0,0,1,-26,45)">
<use xlink:href="#P"/>
<g transform="matrix(1,0,0,1,-26,45)">
<use xlink:href="#P"/>
<g transform="matrix(1,0,0,1,-26,45)">
<use xlink:href="#P"/>
<g transform="matrix(1,0,0,1,-26,45)">
<use xlink:href="#P"/>
<g transform="matrix(1,0,0,1,-26,45)">
<use xlink:href="#P"/>
<g transform="matrix(1,0,0,1,-26,45)">
<use xlink:href="#P"/>
</g>
</g>
</g>
</g>
</g>
</g>
</g>
</g>
</g>
</g>

</g>
	</svg>