<?xml version="1.0" standalone="no"?>
<!DOCTYPE svg PUBLIC "-//W3C//DTD SVG 1.1//EN" "http://www.w3.org/Graphics/SVG/1.1/DTD/svg11.dtd">
<svg width="100%" height="100%" viewBox="0 0 2481 3508" version="1.1" xmlns="http://www.w3.org/2000/svg" xmlns:xlink="http://www.w3.org/1999/xlink" xml:space="preserve" style="fill-rule:evenodd;clip-rule:evenodd;stroke-linejoin:round;stroke-miterlimit:1.41421;">
    <g id="レイヤ1">
        <g transform="matrix(0.67759,0,0,0.729444,223.288,-557.093)">
            <path d="M1125.15,1712.6L1125.4,2303.44L1432.01,2125.41L1432.01,1889.76L1125.15,1712.6Z" style="fill:rgb(255,0,123);"/>
        </g>
        <g transform="matrix(0.67759,0,0,0.729444,223.288,-557.093)">
            <path d="M1125.15,1712.6L1125.4,2303.44L1432.01,2125.41L1432.01,1889.76L1125.15,1712.6Z" style="fill:rgb(255,0,123);"/>
        </g>
        <g transform="matrix(0.67759,0,0,0.729444,915.866,734.915)">
            <path d="M1125.15,1712.6L1125.4,2303.44L1432.01,2125.41L1432.01,1889.76L1125.15,1712.6Z" style="fill:rgb(255,0,123);"/>
        </g>
        <g transform="matrix(0.67759,0,0,0.729444,1261.73,88.0227)">
            <path d="M1125.15,1712.6L1125.4,2303.44L1432.01,2125.41L1432.01,1889.76L1125.15,1712.6Z" style="fill:rgb(255,0,123);"/>
        </g>
        <g transform="matrix(0.67759,0,0,0.729444,-125.061,88.3101)">
            <path d="M1125.15,1712.6L1125.4,2303.44L1432.01,2125.41L1432.01,1889.76L1125.15,1712.6Z" style="fill:rgb(255,0,123);"/>
        </g>
        <g transform="matrix(0.67759,0,0,0.729444,221.774,735.909)">
            <path d="M1125.15,1712.6L1125.4,2303.44L1432.01,2125.41L1432.01,1889.76L1125.15,1712.6Z" style="fill:rgb(255,0,123);"/>
        </g>
        <g transform="matrix(0.67759,0,0,0.729444,915.866,734.915)">
            <path d="M1125.15,1712.6L1125.4,2303.44L1432.01,2125.41L1432.01,1889.76L1125.15,1712.6Z" style="fill:rgb(255,0,123);"/>
        </g>
        <g transform="matrix(0.67759,0,0,0.729444,1261.73,88.0227)">
            <path d="M1125.15,1712.6L1125.4,2303.44L1432.01,2125.41L1432.01,1889.76L1125.15,1712.6Z" style="fill:rgb(255,0,123);"/>
        </g>
        <g transform="matrix(0.67759,0,0,0.729444,-125.061,88.3101)">
            <path d="M1125.15,1712.6L1125.4,2303.44L1432.01,2125.41L1432.01,1889.76L1125.15,1712.6Z" style="fill:rgb(255,0,123);"/>
        </g>
        <g transform="matrix(0.67759,0,0,0.729444,221.774,735.909)">
            <path d="M1125.15,1712.6L1125.4,2303.44L1432.01,2125.41L1432.01,1889.76L1125.15,1712.6Z" style="fill:rgb(255,0,123);"/>
        </g>
        <g transform="matrix(0.67759,0,0,0.729444,915.698,-556.989)">
            <path d="M1125.15,1712.6L1125.4,2303.44L1432.01,2125.41L1432.01,1889.76L1125.15,1712.6Z" style="fill:rgb(255,0,123);"/>
        </g>
        <g transform="matrix(0.67759,0,0,0.729444,915.698,-556.989)">
            <path d="M1125.15,1712.6L1125.4,2303.44L1432.01,2125.41L1432.01,1889.76L1125.15,1712.6Z" style="fill:rgb(255,0,123);"/>
        </g>
        <g transform="matrix(0.67759,0,0,0.729444,569.577,89.4338)">
            <path d="M1125.15,1712.6L1125.4,2303.44L1432.01,2125.41L1432.01,1889.76L1125.15,1712.6Z" style="fill:rgb(255,0,123);"/>
        </g>
        <g transform="matrix(0.67759,0,0,0.729444,569.577,89.4338)">
            <path d="M1125.15,1712.6L1125.4,2303.44L1432.01,2125.41L1432.01,1889.76L1125.15,1712.6Z" style="fill:rgb(255,0,123);"/>
        </g>
        <g transform="matrix(-0.67759,2.34607e-16,-2.17929e-16,-0.729444,1609.62,2716.58)">
            <path d="M1125.15,1712.6L1125.15,2302.43L1432.01,2125.55L1432.01,1889.76L1125.15,1712.6Z" style="fill:rgb(255,0,123);"/>
        </g>
        <g transform="matrix(-0.67759,2.34607e-16,-2.17929e-16,-0.729444,1609.62,2716.58)">
            <path d="M1125.15,1712.6L1125.15,2302.43L1432.01,2125.55L1432.01,1889.76L1125.15,1712.6Z" style="fill:rgb(255,0,123);"/>
        </g>
        <g transform="matrix(-0.67759,2.34607e-16,-2.17929e-16,-0.729444,2302.2,4008.59)">
            <path d="M1125.15,1712.6L1125.15,2302.43L1432.01,2125.55L1432.01,1889.76L1125.15,1712.6Z" style="fill:rgb(255,0,123);"/>
        </g>
        <g transform="matrix(-0.67759,2.34607e-16,-2.17929e-16,-0.729444,2648.07,3361.7)">
            <path d="M1125.15,1712.6L1125.15,2302.43L1432.01,2125.55L1432.01,1889.76L1125.15,1712.6Z" style="fill:rgb(255,0,123);"/>
        </g>
        <g transform="matrix(-0.67759,2.34607e-16,-2.17929e-16,-0.729444,1261.27,3361.98)">
            <path d="M1125.15,1712.6L1125.15,2302.43L1432.01,2125.55L1432.01,1889.76L1125.15,1712.6Z" style="fill:rgb(255,0,123);"/>
        </g>
        <g transform="matrix(-0.67759,2.34607e-16,-2.17929e-16,-0.729444,1608.11,4009.58)">
            <path d="M1125.15,1712.6L1125.15,2302.43L1432.01,2125.55L1432.01,1889.76L1125.15,1712.6Z" style="fill:rgb(255,0,123);"/>
        </g>
        <g transform="matrix(-0.67759,2.34607e-16,-2.17929e-16,-0.729444,2302.2,4008.59)">
            <path d="M1125.15,1712.6L1125.15,2302.43L1432.01,2125.55L1432.01,1889.76L1125.15,1712.6Z" style="fill:rgb(255,0,123);"/>
        </g>
        <g transform="matrix(-0.67759,2.34607e-16,-2.17929e-16,-0.729444,2648.07,3361.7)">
            <path d="M1125.15,1712.6L1125.15,2302.43L1432.01,2125.55L1432.01,1889.76L1125.15,1712.6Z" style="fill:rgb(255,0,123);"/>
        </g>
        <g transform="matrix(-0.67759,2.34607e-16,-2.17929e-16,-0.729444,1261.27,3361.98)">
            <path d="M1125.15,1712.6L1125.15,2302.43L1432.01,2125.55L1432.01,1889.76L1125.15,1712.6Z" style="fill:rgb(255,0,123);"/>
        </g>
        <g transform="matrix(-0.67759,2.34607e-16,-2.17929e-16,-0.729444,1608.11,4009.58)">
            <path d="M1125.15,1712.6L1125.15,2302.43L1432.01,2125.55L1432.01,1889.76L1125.15,1712.6Z" style="fill:rgb(255,0,123);"/>
        </g>
        <g transform="matrix(-0.67759,2.34607e-16,-2.17929e-16,-0.729444,2302.03,2716.69)">
            <path d="M1125.15,1712.6L1125.15,2302.43L1432.01,2125.55L1432.01,1889.76L1125.15,1712.6Z" style="fill:rgb(255,0,123);"/>
        </g>
        <g transform="matrix(-0.67759,2.34607e-16,-2.17929e-16,-0.729444,2302.03,2716.69)">
            <path d="M1125.15,1712.6L1125.15,2302.43L1432.01,2125.55L1432.01,1889.76L1125.15,1712.6Z" style="fill:rgb(255,0,123);"/>
        </g>
        <g transform="matrix(-0.67759,2.34607e-16,-2.17929e-16,-0.729444,1955.91,3363.11)">
            <path d="M1125.15,1712.6L1125.15,2302.43L1432.01,2125.55L1432.01,1889.76L1125.15,1712.6Z" style="fill:rgb(255,0,123);"/>
        </g>
        <g transform="matrix(-0.67759,2.34607e-16,-2.17929e-16,-0.729444,1955.91,3363.11)">
            <path d="M1125.15,1712.6L1125.15,2302.43L1432.01,2125.55L1432.01,1889.76L1125.15,1712.6Z" style="fill:rgb(255,0,123);"/>
        </g>
        <g transform="matrix(-0.67759,2.34607e-16,-2.17929e-16,-0.729444,1609.37,2286.07)">
            <path d="M920.826,1712.74L1431.89,2008.09L1125.15,2185.18L920.454,2067L920.826,1712.74Z" style="fill:rgb(255,192,0);"/>
        </g>
        <g transform="matrix(-0.67759,2.34607e-16,-2.17929e-16,-0.729444,1609.37,2286.07)">
            <path d="M920.826,1712.74L1431.89,2008.09L1125.15,2185.18L920.454,2067L920.826,1712.74Z" style="fill:rgb(255,192,0);"/>
        </g>
        <g transform="matrix(-0.67759,2.34607e-16,-2.17929e-16,-0.729444,2301.95,3578.08)">
            <path d="M920.826,1712.74L1431.89,2008.09L1125.15,2185.18L920.454,2067L920.826,1712.74Z" style="fill:rgb(255,192,0);"/>
        </g>
        <g transform="matrix(-0.67759,2.34607e-16,-2.17929e-16,-0.729444,2647.82,2931.18)">
            <path d="M920.826,1712.74L1431.89,2008.09L1125.15,2185.18L920.454,2067L920.826,1712.74Z" style="fill:rgb(255,192,0);"/>
        </g>
        <g transform="matrix(-0.67759,2.34607e-16,-2.17929e-16,-0.729444,1261.02,2931.47)">
            <path d="M920.826,1712.74L1431.89,2008.09L1125.15,2185.18L920.454,2067L920.826,1712.74Z" style="fill:rgb(255,192,0);"/>
        </g>
        <g transform="matrix(-0.67759,2.34607e-16,-2.17929e-16,-0.729444,1607.86,3579.07)">
            <path d="M920.826,1712.74L1431.89,2008.09L1125.15,2185.18L920.454,2067L920.826,1712.74Z" style="fill:rgb(255,192,0);"/>
        </g>
        <g transform="matrix(-0.67759,2.34607e-16,-2.17929e-16,-0.729444,2301.95,3578.08)">
            <path d="M920.826,1712.74L1431.89,2008.09L1125.15,2185.18L920.454,2067L920.826,1712.74Z" style="fill:rgb(255,192,0);"/>
        </g>
        <g transform="matrix(-0.67759,2.34607e-16,-2.17929e-16,-0.729444,2647.82,2931.18)">
            <path d="M920.826,1712.74L1431.89,2008.09L1125.15,2185.18L920.454,2067L920.826,1712.74Z" style="fill:rgb(255,192,0);"/>
        </g>
        <g transform="matrix(-0.67759,2.34607e-16,-2.17929e-16,-0.729444,1261.02,2931.47)">
            <path d="M920.826,1712.74L1431.89,2008.09L1125.15,2185.18L920.454,2067L920.826,1712.74Z" style="fill:rgb(255,192,0);"/>
        </g>
        <g transform="matrix(-0.67759,2.34607e-16,-2.17929e-16,-0.729444,1607.86,3579.07)">
            <path d="M920.826,1712.74L1431.89,2008.09L1125.15,2185.18L920.454,2067L920.826,1712.74Z" style="fill:rgb(255,192,0);"/>
        </g>
        <g transform="matrix(-0.67759,2.34607e-16,-2.17929e-16,-0.729444,2301.78,2286.17)">
            <path d="M920.826,1712.74L1431.89,2008.09L1125.15,2185.18L920.454,2067L920.826,1712.74Z" style="fill:rgb(255,192,0);"/>
        </g>
        <g transform="matrix(-0.67759,2.34607e-16,-2.17929e-16,-0.729444,2301.78,2286.17)">
            <path d="M920.826,1712.74L1431.89,2008.09L1125.15,2185.18L920.454,2067L920.826,1712.74Z" style="fill:rgb(255,192,0);"/>
        </g>
        <g transform="matrix(-0.67759,2.34607e-16,-2.17929e-16,-0.729444,1955.66,2932.59)">
            <path d="M920.826,1712.74L1431.89,2008.09L1125.15,2185.18L920.454,2067L920.826,1712.74Z" style="fill:rgb(255,192,0);"/>
        </g>
        <g transform="matrix(-0.67759,2.34607e-16,-2.17929e-16,-0.729444,1955.66,2932.59)">
            <path d="M920.826,1712.74L1431.89,2008.09L1125.15,2185.18L920.454,2067L920.826,1712.74Z" style="fill:rgb(255,192,0);"/>
        </g>
        <g transform="matrix(0.67759,-4.69214e-16,4.35859e-16,0.729444,223.54,-126.58)">
            <path d="M920.206,1712.38L1431.89,2008.09L1125.15,2185.18L920.454,2067.43L920.206,1712.38Z" style="fill:rgb(255,192,0);"/>
        </g>
        <g transform="matrix(0.67759,-4.69214e-16,4.35859e-16,0.729444,223.54,-126.58)">
            <path d="M920.206,1712.38L1431.89,2008.09L1125.15,2185.18L920.454,2067.43L920.206,1712.38Z" style="fill:rgb(255,192,0);"/>
        </g>
        <g transform="matrix(0.67759,-4.69214e-16,4.35859e-16,0.729444,916.118,1165.43)">
            <path d="M920.206,1712.38L1431.89,2008.09L1125.15,2185.18L920.454,2067.43L920.206,1712.38Z" style="fill:rgb(255,192,0);"/>
        </g>
        <g transform="matrix(0.67759,-4.69214e-16,4.35859e-16,0.729444,1261.99,518.535)">
            <path d="M920.206,1712.38L1431.89,2008.09L1125.15,2185.18L920.454,2067.43L920.206,1712.38Z" style="fill:rgb(255,192,0);"/>
        </g>
        <g transform="matrix(0.67759,-4.69214e-16,4.35859e-16,0.729444,-124.809,518.823)">
            <path d="M920.206,1712.38L1431.89,2008.09L1125.15,2185.18L920.454,2067.43L920.206,1712.38Z" style="fill:rgb(255,192,0);"/>
        </g>
        <g transform="matrix(0.67759,-4.69214e-16,4.35859e-16,0.729444,222.026,1166.42)">
            <path d="M920.206,1712.38L1431.89,2008.09L1125.15,2185.18L920.454,2067.43L920.206,1712.38Z" style="fill:rgb(255,192,0);"/>
        </g>
        <g transform="matrix(0.67759,-4.69214e-16,4.35859e-16,0.729444,916.118,1165.43)">
            <path d="M920.206,1712.38L1431.89,2008.09L1125.15,2185.18L920.454,2067.43L920.206,1712.38Z" style="fill:rgb(255,192,0);"/>
        </g>
        <g transform="matrix(0.67759,-4.69214e-16,4.35859e-16,0.729444,1261.99,518.535)">
            <path d="M920.206,1712.38L1431.89,2008.09L1125.15,2185.18L920.454,2067.43L920.206,1712.38Z" style="fill:rgb(255,192,0);"/>
        </g>
        <g transform="matrix(0.67759,-4.69214e-16,4.35859e-16,0.729444,-124.809,518.823)">
            <path d="M920.206,1712.38L1431.89,2008.09L1125.15,2185.18L920.454,2067.43L920.206,1712.38Z" style="fill:rgb(255,192,0);"/>
        </g>
        <g transform="matrix(0.67759,-4.69214e-16,4.35859e-16,0.729444,222.026,1166.42)">
            <path d="M920.206,1712.38L1431.89,2008.09L1125.15,2185.18L920.454,2067.43L920.206,1712.38Z" style="fill:rgb(255,192,0);"/>
        </g>
        <g transform="matrix(0.67759,-4.69214e-16,4.35859e-16,0.729444,915.95,-126.476)">
            <path d="M920.206,1712.38L1431.89,2008.09L1125.15,2185.18L920.454,2067.43L920.206,1712.38Z" style="fill:rgb(255,192,0);"/>
        </g>
        <g transform="matrix(0.67759,-4.69214e-16,4.35859e-16,0.729444,915.95,-126.476)">
            <path d="M920.206,1712.38L1431.89,2008.09L1125.15,2185.18L920.454,2067.43L920.206,1712.38Z" style="fill:rgb(255,192,0);"/>
        </g>
        <g transform="matrix(0.67759,-4.69214e-16,4.35859e-16,0.729444,569.829,519.947)">
            <path d="M920.206,1712.38L1431.89,2008.09L1125.15,2185.18L920.454,2067.43L920.206,1712.38Z" style="fill:rgb(255,192,0);"/>
        </g>
        <g transform="matrix(0.67759,-4.69214e-16,4.35859e-16,0.729444,569.829,519.947)">
            <path d="M920.206,1712.38L1431.89,2008.09L1125.15,2185.18L920.454,2067.43L920.206,1712.38Z" style="fill:rgb(255,192,0);"/>
        </g>
        <g transform="matrix(-0.338795,0.631717,-0.58681,-0.364722,2233.23,1036.98)">
            <path d="M920.454,1712.38L1431.89,2008.09L1125.15,2185.18L920.33,2067.07L920.454,1712.38Z" style="fill:rgb(238,255,0);"/>
        </g>
        <g transform="matrix(-0.338795,0.631717,-0.58681,-0.364722,2233.23,1036.98)">
            <path d="M920.454,1712.38L1431.89,2008.09L1125.15,2185.18L920.33,2067.07L920.454,1712.38Z" style="fill:rgb(238,255,0);"/>
        </g>
        <g transform="matrix(-0.338795,0.631717,-0.58681,-0.364722,2925.81,2328.99)">
            <path d="M920.454,1712.38L1431.89,2008.09L1125.15,2185.18L920.33,2067.07L920.454,1712.38Z" style="fill:rgb(238,255,0);"/>
        </g>
        <g transform="matrix(-0.338795,0.631717,-0.58681,-0.364722,3271.67,1682.1)">
            <path d="M920.454,1712.38L1431.89,2008.09L1125.15,2185.18L920.33,2067.07L920.454,1712.38Z" style="fill:rgb(238,255,0);"/>
        </g>
        <g transform="matrix(-0.338795,0.631717,-0.58681,-0.364722,1884.88,1682.38)">
            <path d="M920.454,1712.38L1431.89,2008.09L1125.15,2185.18L920.33,2067.07L920.454,1712.38Z" style="fill:rgb(238,255,0);"/>
        </g>
        <g transform="matrix(-0.338795,0.631717,-0.58681,-0.364722,2231.71,2329.98)">
            <path d="M920.454,1712.38L1431.89,2008.09L1125.15,2185.18L920.33,2067.07L920.454,1712.38Z" style="fill:rgb(238,255,0);"/>
        </g>
        <g transform="matrix(-0.338795,0.631717,-0.58681,-0.364722,2925.81,2328.99)">
            <path d="M920.454,1712.38L1431.89,2008.09L1125.15,2185.18L920.33,2067.07L920.454,1712.38Z" style="fill:rgb(238,255,0);"/>
        </g>
        <g transform="matrix(-0.338795,0.631717,-0.58681,-0.364722,3271.67,1682.1)">
            <path d="M920.454,1712.38L1431.89,2008.09L1125.15,2185.18L920.33,2067.07L920.454,1712.38Z" style="fill:rgb(238,255,0);"/>
        </g>
        <g transform="matrix(-0.338795,0.631717,-0.58681,-0.364722,1884.88,1682.38)">
            <path d="M920.454,1712.38L1431.89,2008.09L1125.15,2185.18L920.33,2067.07L920.454,1712.38Z" style="fill:rgb(238,255,0);"/>
        </g>
        <g transform="matrix(-0.338795,0.631717,-0.58681,-0.364722,2231.71,2329.98)">
            <path d="M920.454,1712.38L1431.89,2008.09L1125.15,2185.18L920.33,2067.07L920.454,1712.38Z" style="fill:rgb(238,255,0);"/>
        </g>
        <g transform="matrix(-0.338795,0.631717,-0.58681,-0.364722,2925.64,1037.08)">
            <path d="M920.454,1712.38L1431.89,2008.09L1125.15,2185.18L920.33,2067.07L920.454,1712.38Z" style="fill:rgb(238,255,0);"/>
        </g>
        <g transform="matrix(-0.338795,0.631717,-0.58681,-0.364722,2925.64,1037.08)">
            <path d="M920.454,1712.38L1431.89,2008.09L1125.15,2185.18L920.33,2067.07L920.454,1712.38Z" style="fill:rgb(238,255,0);"/>
        </g>
        <g transform="matrix(-0.338795,0.631717,-0.58681,-0.364722,2579.52,1683.51)">
            <path d="M920.454,1712.38L1431.89,2008.09L1125.15,2185.18L920.33,2067.07L920.454,1712.38Z" style="fill:rgb(238,255,0);"/>
        </g>
        <g transform="matrix(-0.338795,0.631717,-0.58681,-0.364722,2579.52,1683.51)">
            <path d="M920.454,1712.38L1431.89,2008.09L1125.15,2185.18L920.33,2067.07L920.454,1712.38Z" style="fill:rgb(238,255,0);"/>
        </g>
        <g transform="matrix(0.338795,-0.631717,0.58681,0.364722,-400.318,1122.51)">
            <path d="M919.958,1713.1L1431.89,2008.09L1125.15,2185.18L919.958,2067L919.958,1713.1Z" style="fill:rgb(238,255,0);"/>
        </g>
        <g transform="matrix(0.338795,-0.631717,0.58681,0.364722,-400.318,1122.51)">
            <path d="M919.958,1713.1L1431.89,2008.09L1125.15,2185.18L919.958,2067L919.958,1713.1Z" style="fill:rgb(238,255,0);"/>
        </g>
        <g transform="matrix(0.338795,-0.631717,0.58681,0.364722,292.932,2414.52)">
            <path d="M919.958,1713.1L1431.89,2008.09L1125.15,2185.18L919.958,2067L919.958,1713.1Z" style="fill:rgb(238,255,0);"/>
        </g>
        <g transform="matrix(0.338795,-0.631717,0.58681,0.364722,638.801,1767.62)">
            <path d="M919.958,1713.1L1431.89,2008.09L1125.15,2185.18L919.958,2067L919.958,1713.1Z" style="fill:rgb(238,255,0);"/>
        </g>
        <g transform="matrix(0.338795,-0.631717,0.58681,0.364722,-747.995,1767.91)">
            <path d="M919.958,1713.1L1431.89,2008.09L1125.15,2185.18L919.958,2067L919.958,1713.1Z" style="fill:rgb(238,255,0);"/>
        </g>
        <g transform="matrix(0.338795,-0.631717,0.58681,0.364722,-401.159,2415.51)">
            <path d="M919.958,1713.1L1431.89,2008.09L1125.15,2185.18L919.958,2067L919.958,1713.1Z" style="fill:rgb(238,255,0);"/>
        </g>
        <g transform="matrix(0.338795,-0.631717,0.58681,0.364722,292.932,2414.52)">
            <path d="M919.958,1713.1L1431.89,2008.09L1125.15,2185.18L919.958,2067L919.958,1713.1Z" style="fill:rgb(238,255,0);"/>
        </g>
        <g transform="matrix(0.338795,-0.631717,0.58681,0.364722,638.801,1767.62)">
            <path d="M919.958,1713.1L1431.89,2008.09L1125.15,2185.18L919.958,2067L919.958,1713.1Z" style="fill:rgb(238,255,0);"/>
        </g>
        <g transform="matrix(0.338795,-0.631717,0.58681,0.364722,-747.995,1767.91)">
            <path d="M919.958,1713.1L1431.89,2008.09L1125.15,2185.18L919.958,2067L919.958,1713.1Z" style="fill:rgb(238,255,0);"/>
        </g>
        <g transform="matrix(0.338795,-0.631717,0.58681,0.364722,-401.159,2415.51)">
            <path d="M919.958,1713.1L1431.89,2008.09L1125.15,2185.18L919.958,2067L919.958,1713.1Z" style="fill:rgb(238,255,0);"/>
        </g>
        <g transform="matrix(0.338795,-0.631717,0.58681,0.364722,292.091,1122.61)">
            <path d="M919.958,1713.1L1431.89,2008.09L1125.15,2185.18L919.958,2067L919.958,1713.1Z" style="fill:rgb(238,255,0);"/>
        </g>
        <g transform="matrix(0.338795,-0.631717,0.58681,0.364722,292.091,1122.61)">
            <path d="M919.958,1713.1L1431.89,2008.09L1125.15,2185.18L919.958,2067L919.958,1713.1Z" style="fill:rgb(238,255,0);"/>
        </g>
        <g transform="matrix(0.338795,-0.631717,0.58681,0.364722,-54.0294,1769.03)">
            <path d="M919.958,1713.1L1431.89,2008.09L1125.15,2185.18L919.958,2067L919.958,1713.1Z" style="fill:rgb(238,255,0);"/>
        </g>
        <g transform="matrix(0.338795,-0.631717,0.58681,0.364722,-54.0294,1769.03)">
            <path d="M919.958,1713.1L1431.89,2008.09L1125.15,2185.18L919.958,2067L919.958,1713.1Z" style="fill:rgb(238,255,0);"/>
        </g>
        <g transform="matrix(0.67759,0,0,0.729444,223.288,-557.093)">
            <path d="M1022.87,1771.65L1125.15,1712.6L1125.15,1830.71L1022.87,1771.65Z" style="fill:rgb(238,255,0);"/>
        </g>
        <g transform="matrix(0.67759,0,0,0.729444,223.288,-557.093)">
            <path d="M1022.87,1771.65L1125.15,1712.6L1125.15,1830.71L1022.87,1771.65Z" style="fill:rgb(238,255,0);"/>
        </g>
        <g transform="matrix(0.67759,0,0,0.729444,915.866,734.915)">
            <path d="M1022.87,1771.65L1125.15,1712.6L1125.15,1830.71L1022.87,1771.65Z" style="fill:rgb(238,255,0);"/>
        </g>
        <g transform="matrix(0.67759,0,0,0.729444,1261.73,88.0227)">
            <path d="M1022.87,1771.65L1125.15,1712.6L1125.15,1830.71L1022.87,1771.65Z" style="fill:rgb(238,255,0);"/>
        </g>
        <g transform="matrix(0.67759,0,0,0.729444,-125.061,88.3101)">
            <path d="M1022.87,1771.65L1125.15,1712.6L1125.15,1830.71L1022.87,1771.65Z" style="fill:rgb(238,255,0);"/>
        </g>
        <g transform="matrix(0.67759,0,0,0.729444,221.774,735.909)">
            <path d="M1022.87,1771.65L1125.15,1712.6L1125.15,1830.71L1022.87,1771.65Z" style="fill:rgb(238,255,0);"/>
        </g>
        <g transform="matrix(0.67759,0,0,0.729444,915.866,734.915)">
            <path d="M1022.87,1771.65L1125.15,1712.6L1125.15,1830.71L1022.87,1771.65Z" style="fill:rgb(238,255,0);"/>
        </g>
        <g transform="matrix(0.67759,0,0,0.729444,1261.73,88.0227)">
            <path d="M1022.87,1771.65L1125.15,1712.6L1125.15,1830.71L1022.87,1771.65Z" style="fill:rgb(238,255,0);"/>
        </g>
        <g transform="matrix(0.67759,0,0,0.729444,-125.061,88.3101)">
            <path d="M1022.87,1771.65L1125.15,1712.6L1125.15,1830.71L1022.87,1771.65Z" style="fill:rgb(238,255,0);"/>
        </g>
        <g transform="matrix(0.67759,0,0,0.729444,221.774,735.909)">
            <path d="M1022.87,1771.65L1125.15,1712.6L1125.15,1830.71L1022.87,1771.65Z" style="fill:rgb(238,255,0);"/>
        </g>
        <g transform="matrix(0.67759,0,0,0.729444,915.698,-556.989)">
            <path d="M1022.87,1771.65L1125.15,1712.6L1125.15,1830.71L1022.87,1771.65Z" style="fill:rgb(238,255,0);"/>
        </g>
        <g transform="matrix(0.67759,0,0,0.729444,915.698,-556.989)">
            <path d="M1022.87,1771.65L1125.15,1712.6L1125.15,1830.71L1022.87,1771.65Z" style="fill:rgb(238,255,0);"/>
        </g>
        <g transform="matrix(0.67759,0,0,0.729444,569.577,89.4338)">
            <path d="M1022.87,1771.65L1125.15,1712.6L1125.15,1830.71L1022.87,1771.65Z" style="fill:rgb(238,255,0);"/>
        </g>
        <g transform="matrix(0.67759,0,0,0.729444,569.577,89.4338)">
            <path d="M1022.87,1771.65L1125.15,1712.6L1125.15,1830.71L1022.87,1771.65Z" style="fill:rgb(238,255,0);"/>
        </g>
        <g transform="matrix(-0.67759,2.34607e-16,-2.17929e-16,-0.729444,1609.62,2716.58)">
            <path d="M1022.87,1771.65L1125.15,1712.6L1125.15,1830.71L1022.87,1771.65Z" style="fill:rgb(238,255,0);"/>
        </g>
        <g transform="matrix(-0.67759,2.34607e-16,-2.17929e-16,-0.729444,1609.62,2716.58)">
            <path d="M1022.87,1771.65L1125.15,1712.6L1125.15,1830.71L1022.87,1771.65Z" style="fill:rgb(238,255,0);"/>
        </g>
        <g transform="matrix(-0.67759,2.34607e-16,-2.17929e-16,-0.729444,2302.2,4008.59)">
            <path d="M1022.87,1771.65L1125.15,1712.6L1125.15,1830.71L1022.87,1771.65Z" style="fill:rgb(238,255,0);"/>
        </g>
        <g transform="matrix(-0.67759,2.34607e-16,-2.17929e-16,-0.729444,2648.07,3361.7)">
            <path d="M1022.87,1771.65L1125.15,1712.6L1125.15,1830.71L1022.87,1771.65Z" style="fill:rgb(238,255,0);"/>
        </g>
        <g transform="matrix(-0.67759,2.34607e-16,-2.17929e-16,-0.729444,1261.27,3361.98)">
            <path d="M1022.87,1771.65L1125.15,1712.6L1125.15,1830.71L1022.87,1771.65Z" style="fill:rgb(238,255,0);"/>
        </g>
        <g transform="matrix(-0.67759,2.34607e-16,-2.17929e-16,-0.729444,1608.11,4009.58)">
            <path d="M1022.87,1771.65L1125.15,1712.6L1125.15,1830.71L1022.87,1771.65Z" style="fill:rgb(238,255,0);"/>
        </g>
        <g transform="matrix(-0.67759,2.34607e-16,-2.17929e-16,-0.729444,2302.2,4008.59)">
            <path d="M1022.87,1771.65L1125.15,1712.6L1125.15,1830.71L1022.87,1771.65Z" style="fill:rgb(238,255,0);"/>
        </g>
        <g transform="matrix(-0.67759,2.34607e-16,-2.17929e-16,-0.729444,2648.07,3361.7)">
            <path d="M1022.87,1771.65L1125.15,1712.6L1125.15,1830.71L1022.87,1771.65Z" style="fill:rgb(238,255,0);"/>
        </g>
        <g transform="matrix(-0.67759,2.34607e-16,-2.17929e-16,-0.729444,1261.27,3361.98)">
            <path d="M1022.87,1771.65L1125.15,1712.6L1125.15,1830.71L1022.87,1771.65Z" style="fill:rgb(238,255,0);"/>
        </g>
        <g transform="matrix(-0.67759,2.34607e-16,-2.17929e-16,-0.729444,1608.11,4009.58)">
            <path d="M1022.87,1771.65L1125.15,1712.6L1125.15,1830.71L1022.87,1771.65Z" style="fill:rgb(238,255,0);"/>
        </g>
        <g transform="matrix(-0.67759,2.34607e-16,-2.17929e-16,-0.729444,2302.03,2716.69)">
            <path d="M1022.87,1771.65L1125.15,1712.6L1125.15,1830.71L1022.87,1771.65Z" style="fill:rgb(238,255,0);"/>
        </g>
        <g transform="matrix(-0.67759,2.34607e-16,-2.17929e-16,-0.729444,2302.03,2716.69)">
            <path d="M1022.87,1771.65L1125.15,1712.6L1125.15,1830.71L1022.87,1771.65Z" style="fill:rgb(238,255,0);"/>
        </g>
        <g transform="matrix(-0.67759,2.34607e-16,-2.17929e-16,-0.729444,1955.91,3363.11)">
            <path d="M1022.87,1771.65L1125.15,1712.6L1125.15,1830.71L1022.87,1771.65Z" style="fill:rgb(238,255,0);"/>
        </g>
        <g transform="matrix(-0.67759,2.34607e-16,-2.17929e-16,-0.729444,2301.78,2716.21)">
            <path d="M1022.87,1771.65L1125.15,1712.6L1125.15,1830.71L1022.87,1771.65Z" style="fill:rgb(238,255,0);"/>
        </g>
        <g transform="matrix(-0.67759,2.34607e-16,-2.17929e-16,-0.729444,1261.82,3364.1)">
            <path d="M1022.87,1771.65L1125.15,1712.6L1125.15,1830.71L1022.87,1771.65Z" style="fill:rgb(238,255,0);"/>
        </g>
        <g transform="matrix(-0.67759,2.34607e-16,-2.17929e-16,-0.729444,1955.91,3363.11)">
            <path d="M1022.87,1771.65L1125.15,1712.6L1125.15,1830.71L1022.87,1771.65Z" style="fill:rgb(238,255,0);"/>
        </g>
        <g transform="matrix(-0.67759,2.34607e-16,-2.17929e-16,-0.729444,1401.53,2156.89)">
            <path d="M1022.87,1771.65L1125.15,1712.6L1125.15,1830.71L1022.87,1771.65Z" style="fill:rgb(255,0,123);"/>
        </g>
        <g transform="matrix(-0.67759,2.34607e-16,-2.17929e-16,-0.729444,1401.53,2156.89)">
            <path d="M1022.87,1771.65L1125.15,1712.6L1125.15,1830.71L1022.87,1771.65Z" style="fill:rgb(255,0,123);"/>
        </g>
        <g transform="matrix(-0.67759,2.34607e-16,-2.17929e-16,-0.729444,2094.11,3448.9)">
            <path d="M1022.87,1771.65L1125.15,1712.6L1125.15,1830.71L1022.87,1771.65Z" style="fill:rgb(255,0,123);"/>
        </g>
        <g transform="matrix(-0.67759,2.34607e-16,-2.17929e-16,-0.729444,2439.97,2802)">
            <path d="M1022.87,1771.65L1125.15,1712.6L1125.15,1830.71L1022.87,1771.65Z" style="fill:rgb(255,0,123);"/>
        </g>
        <g transform="matrix(-0.67759,2.34607e-16,-2.17929e-16,-0.729444,1053.18,2802.29)">
            <path d="M1022.87,1771.65L1125.15,1712.6L1125.15,1830.71L1022.87,1771.65Z" style="fill:rgb(255,0,123);"/>
        </g>
        <g transform="matrix(-0.67759,2.34607e-16,-2.17929e-16,-0.729444,1400.01,3449.89)">
            <path d="M1022.87,1771.65L1125.15,1712.6L1125.15,1830.71L1022.87,1771.65Z" style="fill:rgb(255,0,123);"/>
        </g>
        <g transform="matrix(-0.67759,2.34607e-16,-2.17929e-16,-0.729444,2094.11,3448.9)">
            <path d="M1022.87,1771.65L1125.15,1712.6L1125.15,1830.71L1022.87,1771.65Z" style="fill:rgb(255,0,123);"/>
        </g>
        <g transform="matrix(-0.67759,2.34607e-16,-2.17929e-16,-0.729444,2439.97,2802)">
            <path d="M1022.87,1771.65L1125.15,1712.6L1125.15,1830.71L1022.87,1771.65Z" style="fill:rgb(255,0,123);"/>
        </g>
        <g transform="matrix(-0.67759,2.34607e-16,-2.17929e-16,-0.729444,1053.18,2802.29)">
            <path d="M1022.87,1771.65L1125.15,1712.6L1125.15,1830.71L1022.87,1771.65Z" style="fill:rgb(255,0,123);"/>
        </g>
        <g transform="matrix(-0.67759,2.34607e-16,-2.17929e-16,-0.729444,1400.01,3449.89)">
            <path d="M1022.87,1771.65L1125.15,1712.6L1125.15,1830.71L1022.87,1771.65Z" style="fill:rgb(255,0,123);"/>
        </g>
        <g transform="matrix(-0.67759,2.34607e-16,-2.17929e-16,-0.729444,2093.94,2156.99)">
            <path d="M1022.87,1771.65L1125.15,1712.6L1125.15,1830.71L1022.87,1771.65Z" style="fill:rgb(255,0,123);"/>
        </g>
        <g transform="matrix(-0.67759,2.34607e-16,-2.17929e-16,-0.729444,2093.94,2156.99)">
            <path d="M1022.87,1771.65L1125.15,1712.6L1125.15,1830.71L1022.87,1771.65Z" style="fill:rgb(255,0,123);"/>
        </g>
        <g transform="matrix(-0.67759,2.34607e-16,-2.17929e-16,-0.729444,1747.82,2803.42)">
            <path d="M1022.87,1771.65L1125.15,1712.6L1125.15,1830.71L1022.87,1771.65Z" style="fill:rgb(255,0,123);"/>
        </g>
        <g transform="matrix(-0.67759,2.34607e-16,-2.17929e-16,-0.729444,1747.82,2803.42)">
            <path d="M1022.87,1771.65L1125.15,1712.6L1125.15,1830.71L1022.87,1771.65Z" style="fill:rgb(255,0,123);"/>
        </g>
        <g transform="matrix(0.67759,-4.69214e-16,4.35859e-16,0.729444,431.381,2.59957)">
            <path d="M1022.87,1771.65L1125.15,1712.6L1125.15,1830.71L1022.87,1771.65Z" style="fill:rgb(255,0,123);"/>
        </g>
        <g transform="matrix(0.67759,-4.69214e-16,4.35859e-16,0.729444,431.381,2.59957)">
            <path d="M1022.87,1771.65L1125.15,1712.6L1125.15,1830.71L1022.87,1771.65Z" style="fill:rgb(255,0,123);"/>
        </g>
        <g transform="matrix(0.67759,-4.69214e-16,4.35859e-16,0.729444,1123.96,1294.61)">
            <path d="M1022.87,1771.65L1125.15,1712.6L1125.15,1830.71L1022.87,1771.65Z" style="fill:rgb(255,0,123);"/>
        </g>
        <g transform="matrix(0.67759,-4.69214e-16,4.35859e-16,0.729444,1469.83,647.715)">
            <path d="M1022.87,1771.65L1125.15,1712.6L1125.15,1830.71L1022.87,1771.65Z" style="fill:rgb(255,0,123);"/>
        </g>
        <g transform="matrix(0.67759,-4.69214e-16,4.35859e-16,0.729444,83.0315,648.003)">
            <path d="M1022.87,1771.65L1125.15,1712.6L1125.15,1830.71L1022.87,1771.65Z" style="fill:rgb(255,0,123);"/>
        </g>
        <g transform="matrix(0.67759,-4.69214e-16,4.35859e-16,0.729444,429.867,1295.6)">
            <path d="M1022.87,1771.65L1125.15,1712.6L1125.15,1830.71L1022.87,1771.65Z" style="fill:rgb(255,0,123);"/>
        </g>
        <g transform="matrix(0.67759,-4.69214e-16,4.35859e-16,0.729444,1123.96,1294.61)">
            <path d="M1022.87,1771.65L1125.15,1712.6L1125.15,1830.71L1022.87,1771.65Z" style="fill:rgb(255,0,123);"/>
        </g>
        <g transform="matrix(0.67759,-4.69214e-16,4.35859e-16,0.729444,1469.83,647.715)">
            <path d="M1022.87,1771.65L1125.15,1712.6L1125.15,1830.71L1022.87,1771.65Z" style="fill:rgb(255,0,123);"/>
        </g>
        <g transform="matrix(0.67759,-4.69214e-16,4.35859e-16,0.729444,83.0315,648.003)">
            <path d="M1022.87,1771.65L1125.15,1712.6L1125.15,1830.71L1022.87,1771.65Z" style="fill:rgb(255,0,123);"/>
        </g>
        <g transform="matrix(0.67759,-4.69214e-16,4.35859e-16,0.729444,429.867,1295.6)">
            <path d="M1022.87,1771.65L1125.15,1712.6L1125.15,1830.71L1022.87,1771.65Z" style="fill:rgb(255,0,123);"/>
        </g>
        <g transform="matrix(0.67759,-4.69214e-16,4.35859e-16,0.729444,1123.79,2.7041)">
            <path d="M1022.87,1771.65L1125.15,1712.6L1125.15,1830.71L1022.87,1771.65Z" style="fill:rgb(255,0,123);"/>
        </g>
        <g transform="matrix(0.67759,-4.69214e-16,4.35859e-16,0.729444,1123.79,2.7041)">
            <path d="M1022.87,1771.65L1125.15,1712.6L1125.15,1830.71L1022.87,1771.65Z" style="fill:rgb(255,0,123);"/>
        </g>
        <g transform="matrix(0.67759,-4.69214e-16,4.35859e-16,0.729444,777.67,649.127)">
            <path d="M1022.87,1771.65L1125.15,1712.6L1125.15,1830.71L1022.87,1771.65Z" style="fill:rgb(255,0,123);"/>
        </g>
        <g transform="matrix(0.67759,-4.69214e-16,4.35859e-16,0.729444,777.67,649.127)">
            <path d="M1022.87,1771.65L1125.15,1712.6L1125.15,1830.71L1022.87,1771.65Z" style="fill:rgb(255,0,123);"/>
        </g>
        <g transform="matrix(-0.338795,0.631717,-0.58681,-0.364722,2025.39,1166.16)">
            <path d="M1022.87,1771.65L1125.15,1712.6L1125.15,1830.71L1022.87,1771.65Z" style="fill:rgb(255,192,0);"/>
        </g>
        <g transform="matrix(-0.338795,0.631717,-0.58681,-0.364722,2025.39,1166.16)">
            <path d="M1022.87,1771.65L1125.15,1712.6L1125.15,1830.71L1022.87,1771.65Z" style="fill:rgb(255,192,0);"/>
        </g>
        <g transform="matrix(-0.338795,0.631717,-0.58681,-0.364722,2717.96,2458.17)">
            <path d="M1022.87,1771.65L1125.15,1712.6L1125.15,1830.71L1022.87,1771.65Z" style="fill:rgb(255,192,0);"/>
        </g>
        <g transform="matrix(-0.338795,0.631717,-0.58681,-0.364722,3063.83,1811.28)">
            <path d="M1022.87,1771.65L1125.15,1712.6L1125.15,1830.71L1022.87,1771.65Z" style="fill:rgb(255,192,0);"/>
        </g>
        <g transform="matrix(-0.338795,0.631717,-0.58681,-0.364722,1677.04,1811.56)">
            <path d="M1022.87,1771.65L1125.15,1712.6L1125.15,1830.71L1022.87,1771.65Z" style="fill:rgb(255,192,0);"/>
        </g>
        <g transform="matrix(-0.338795,0.631717,-0.58681,-0.364722,2023.87,2459.16)">
            <path d="M1022.87,1771.65L1125.15,1712.6L1125.15,1830.71L1022.87,1771.65Z" style="fill:rgb(255,192,0);"/>
        </g>
        <g transform="matrix(-0.338795,0.631717,-0.58681,-0.364722,2717.96,2458.17)">
            <path d="M1022.87,1771.65L1125.15,1712.6L1125.15,1830.71L1022.87,1771.65Z" style="fill:rgb(255,192,0);"/>
        </g>
        <g transform="matrix(-0.338795,0.631717,-0.58681,-0.364722,3063.83,1811.28)">
            <path d="M1022.87,1771.65L1125.15,1712.6L1125.15,1830.71L1022.87,1771.65Z" style="fill:rgb(255,192,0);"/>
        </g>
        <g transform="matrix(-0.338795,0.631717,-0.58681,-0.364722,1677.04,1811.56)">
            <path d="M1022.87,1771.65L1125.15,1712.6L1125.15,1830.71L1022.87,1771.65Z" style="fill:rgb(255,192,0);"/>
        </g>
        <g transform="matrix(-0.338795,0.631717,-0.58681,-0.364722,2023.87,2459.16)">
            <path d="M1022.87,1771.65L1125.15,1712.6L1125.15,1830.71L1022.87,1771.65Z" style="fill:rgb(255,192,0);"/>
        </g>
        <g transform="matrix(-0.338795,0.631717,-0.58681,-0.364722,1679.27,1812.58)">
            <path d="M1022.87,1771.65L1125.15,1712.6L1125.15,1830.71L1022.87,1771.65Z" style="fill:rgb(255,192,0);"/>
        </g>
        <g transform="matrix(-0.338795,0.631717,-0.58681,-0.364722,2717.8,1166.26)">
            <path d="M1022.87,1771.65L1125.15,1712.6L1125.15,1830.71L1022.87,1771.65Z" style="fill:rgb(255,192,0);"/>
        </g>
        <g transform="matrix(-0.338795,0.631717,-0.58681,-0.364722,2717.8,1166.26)">
            <path d="M1022.87,1771.65L1125.15,1712.6L1125.15,1830.71L1022.87,1771.65Z" style="fill:rgb(255,192,0);"/>
        </g>
        <g transform="matrix(-0.338795,0.631717,-0.58681,-0.364722,2371.68,1812.69)">
            <path d="M1022.87,1771.65L1125.15,1712.6L1125.15,1830.71L1022.87,1771.65Z" style="fill:rgb(255,192,0);"/>
        </g>
        <g transform="matrix(-0.338795,0.631717,-0.58681,-0.364722,2371.68,1812.69)">
            <path d="M1022.87,1771.65L1125.15,1712.6L1125.15,1830.71L1022.87,1771.65Z" style="fill:rgb(255,192,0);"/>
        </g>
        <g transform="matrix(0.338795,-0.631717,0.58681,0.364722,-192.478,993.328)">
            <path d="M1022.87,1771.65L1125.15,1712.6L1125.15,1830.71L1022.87,1771.65Z" style="fill:rgb(255,192,0);"/>
        </g>
        <g transform="matrix(0.338795,-0.631717,0.58681,0.364722,-192.478,993.328)">
            <path d="M1022.87,1771.65L1125.15,1712.6L1125.15,1830.71L1022.87,1771.65Z" style="fill:rgb(255,192,0);"/>
        </g>
        <g transform="matrix(0.338795,-0.631717,0.58681,0.364722,499.932,993.432)">
            <path d="M1022.87,1771.65L1125.15,1712.6L1125.15,1830.71L1022.87,1771.65Z" style="fill:rgb(255,192,0);"/>
        </g>
        <g transform="matrix(0.338795,-0.631717,0.58681,0.364722,499.932,993.432)">
            <path d="M1022.87,1771.65L1125.15,1712.6L1125.15,1830.71L1022.87,1771.65Z" style="fill:rgb(255,192,0);"/>
        </g>
        <g transform="matrix(0.338795,-0.631717,0.58681,0.364722,153.811,1639.85)">
            <path d="M1022.87,1771.65L1125.15,1712.6L1125.15,1830.71L1022.87,1771.65Z" style="fill:rgb(255,192,0);"/>
        </g>
        <g transform="matrix(0.338795,-0.631717,0.58681,0.364722,153.811,1639.85)">
            <path d="M1022.87,1771.65L1125.15,1712.6L1125.15,1830.71L1022.87,1771.65Z" style="fill:rgb(255,192,0);"/>
        </g>
        <g transform="matrix(0.338795,-0.631717,0.58681,0.364722,500.941,2285.96)">
            <path d="M1022.87,1771.65L1125.15,1712.6L1125.15,1830.71L1022.87,1771.65Z" style="fill:rgb(255,192,0);"/>
        </g>
        <g transform="matrix(0.338795,-0.631717,0.58681,0.364722,846.81,1639.07)">
            <path d="M1022.87,1771.65L1125.15,1712.6L1125.15,1830.71L1022.87,1771.65Z" style="fill:rgb(255,192,0);"/>
        </g>
        <g transform="matrix(0.338795,-0.631717,0.58681,0.364722,-539.986,1639.36)">
            <path d="M1022.87,1771.65L1125.15,1712.6L1125.15,1830.71L1022.87,1771.65Z" style="fill:rgb(255,192,0);"/>
        </g>
        <g transform="matrix(0.338795,-0.631717,0.58681,0.364722,-193.15,2286.96)">
            <path d="M1022.87,1771.65L1125.15,1712.6L1125.15,1830.71L1022.87,1771.65Z" style="fill:rgb(255,192,0);"/>
        </g>
        <g transform="matrix(0.338795,-0.631717,0.58681,0.364722,500.941,2285.96)">
            <path d="M1022.87,1771.65L1125.15,1712.6L1125.15,1830.71L1022.87,1771.65Z" style="fill:rgb(255,192,0);"/>
        </g>
        <g transform="matrix(0.338795,-0.631717,0.58681,0.364722,846.81,1639.07)">
            <path d="M1022.87,1771.65L1125.15,1712.6L1125.15,1830.71L1022.87,1771.65Z" style="fill:rgb(255,192,0);"/>
        </g>
        <g transform="matrix(0.338795,-0.631717,0.58681,0.364722,-539.986,1639.36)">
            <path d="M1022.87,1771.65L1125.15,1712.6L1125.15,1830.71L1022.87,1771.65Z" style="fill:rgb(255,192,0);"/>
        </g>
        <g transform="matrix(0.338795,-0.631717,0.58681,0.364722,-193.15,2286.96)">
            <path d="M1022.87,1771.65L1125.15,1712.6L1125.15,1830.71L1022.87,1771.65Z" style="fill:rgb(255,192,0);"/>
        </g>
    </g>
</svg>
